# xmcd
#
# Track frame offsets: 
#        182
#        21525
#        35237
#        55462
#        68480
#        111137
#        124610
#        147877
#
# Disc length: 2153 seconds
#
# Revision: 3
# Processed by: cddbd v1.5.2PL0 Copyright (c) Steve Scherf et al.
# Submitted via: ExactAudioCopy v0.99pb5
#
DISCID=74086708
DTITLE=Bobby Womack - Communication
DYEAR=1994
DGENRE=R&B
TTITLE0=Communication
TTITLE1=Come L'Amore
TTITLE2=Fire And Rain
TTITLE3=(If You Don't Want My Love) Give It Back
TTITLE4=Medley: Monologue/(They Long To Be) Close To You
TTITLE5=Everything Is Beautiful
TTITLE6=That's The Way I Feel About Cha
TTITLE7=Yield Not To Temptation
EXTD=Record Label:\tThe Right Stuff/EMI Records\nCatalog Number:\t7243
EXTD=8-29241-2-9\nRecording Dates:\t?\nOriginal Release:\t1971\nCD Re
EXTD=issue:\t1994\n\nBobby Womack:\tVocals, Horns\nRoger Hawkins:\tDru
EXTD=ms and Percussion\nJimmy Johnson:\tGuitar\nTippy Armstrong:\tLead G
EXTD=uitar\nDavid Hood:\tBass\nBarry Beckett:\tMoog Synthesizer, Elect
EXTD=ric Piano, Piano, Harpsichord, Clavichord\nHarrison Calloway:\tTr
EXTD=umpet\nRonnie Eades:\tBaritone Saxophone\nDale Quillen:\tTrombone
EXTD=\nHarvey Thompson:\tTenor Saxophone\nPam Grier:\tVocals\nPatrice 
EXTD=Holloway:\tVocals\nJanice Singleton:\tVocals
EXTT0=
EXTT1=
EXTT2=
EXTT3=
EXTT4=
EXTT5=
EXTT6=
EXTT7=
PLAYORDER=
